<svg xmlns="http://www.w3.org/2000/svg" xmlns:xlink="http://www.w3.org/1999/xlink" width="74" height="81" viewBox="0 0 74 81">
    <defs>
        <path id="b" d="M0 0h66v55.812L33 73 0 55.812z"/>
        <filter id="a" width="121.2%" height="119.2%" x="-10.6%" y="-6.8%" filterUnits="objectBoundingBox">
            <feOffset dy="2" in="SourceAlpha" result="shadowOffsetOuter1"/>
            <feGaussianBlur in="shadowOffsetOuter1" result="shadowBlurOuter1" stdDeviation="2"/>
            <feColorMatrix in="shadowBlurOuter1" values="0 0 0 0 0 0 0 0 0 0 0 0 0 0 0 0 0 0 0.5 0"/>
        </filter>
    </defs>
    <g fill="none" fill-rule="evenodd">
        <g transform="translate(4 2)">
            <use fill="#000" filter="url(#a)" xlink:href="#b"/>
            <use fill="#FFF" xlink:href="#b"/>
        </g>
        <path fill="#005E9D" d="M50.259 50.86h.195c.221 0 .412-.082.412-.292 0-.146-.11-.294-.412-.294a1.37 1.37 0 0 0-.195.013v.573zm0 .936h-.27v-1.692c.142-.019.275-.039.478-.039.256 0 .426.052.526.126.101.075.154.188.154.351 0 .222-.148.357-.329.411v.012c.147.03.249.163.282.413.04.262.08.363.108.418h-.281c-.043-.055-.082-.208-.116-.43-.04-.216-.147-.296-.364-.296h-.188v.726zm.283-2.165c-.668 0-1.212.574-1.212 1.282 0 .72.544 1.287 1.218 1.287.675.008 1.213-.566 1.213-1.282 0-.713-.538-1.287-1.213-1.287h-.006zm.006-.235c.828 0 1.49.673 1.49 1.517 0 .857-.662 1.523-1.496 1.523-.83 0-1.504-.666-1.504-1.523 0-.844.674-1.517 1.504-1.517h.006z"/>
        <path fill="#FEFEFE" d="M55.081 39.266c1.38-1.402 2.786-3.61 2.786-6.655v-.031c0-1.493-.39-2.79-1.021-3.87-.014-.02-.103-.205-.252-.415l-.03-.04.026-.046c.05-.085.09-.16.113-.217-.069 0-.164 0-.286-.003h-.04l-.025-.03a5.077 5.077 0 0 0-.509-.59c-.24-.232-.604-.598-.93-.85-1.682-1.316-3.753-1.943-5.5-1.947a11.94 11.94 0 0 0-5.08 1.141l-.095.046-.017-.103c-.463-2.55-1.582-4.85-2.875-7.196-1.426-2.581-3.068-5.231-4.394-8.362-1.324 3.13-2.973 5.781-4.396 8.362-1.292 2.345-2.41 4.645-2.873 7.196l-.019.103-.095-.046a11.914 11.914 0 0 0-5.078-1.14c-1.75.003-3.817.63-5.501 1.947a7.697 7.697 0 0 0-.924.844l-.514.628h-.042c-.126.002-.229.002-.3.002.025.057.065.134.113.217l.028.046-.291.45c-.486.787-1.029 2.382-1.027 3.88v.024c0 3.045 1.408 5.253 2.791 6.655 1.385 1.412 2.763 2.111 2.803 2.132l1.058.51a4.129 4.129 0 0 1-.164-1.154c0-.47.08-1.025.335-1.602a5.363 5.363 0 0 1 2.043-2.399c.424-.263.78-.366.78-.366.007 0 .43-.154 1.11-.272l.011-.004.015.004a231.9 231.9 0 0 0 2.04.312l-.009.16h-1.694c.082.063.193.145.319.229.286.204.657.427.971.522.648.19 2.373.494 2.373.494l-.014.158H29.69l2.349 1.404v.328l-2.913 2.844c.045.074.139.223.284.412.205.274.508.63.895.954.137.119.267.22.387.313l.074.057-.377.358a4.27 4.27 0 0 1-.713.456c-.448.236-1.042.451-1.654.451H28.012c-.42 0-.846-.095-1.288-.352-.429-.25-1.8-1.46-1.843-3.264-.773 1.47-.84 2.686-.842 3.367 0 .144.006.264.006.362 0 1.918.749 3.658 1.911 4.921 1.159 1.263 2.738 2.07 4.422 2.07h.004c.764 0 1.542-.17 2.287-.538l.072-.032.036.072c.58 1.229 1.955 3.77 4.173 5.653 2.225-1.888 3.597-4.424 4.176-5.653l.033-.072.074.032a5.143 5.143 0 0 0 2.287.537H43.529c1.679-.001 3.26-.807 4.419-2.069a7.296 7.296 0 0 0 1.91-4.921c0-.096.004-.218.004-.362 0-.68-.068-1.896-.842-3.367-.04 1.804-1.417 3.014-1.838 3.264a2.511 2.511 0 0 1-1.29.352h-.01c-.611 0-1.208-.215-1.657-.451a4.588 4.588 0 0 1-.711-.456l-.008-.004-.309-.388.065-.048c.113-.086.23-.183.359-.288.384-.324.685-.68.891-.954a5.34 5.34 0 0 0 .284-.412l-2.913-2.844v-.328l2.353-1.404h-1.117l-.011-.158s1.724-.303 2.372-.494c.313-.095.682-.318.97-.522.124-.084.234-.166.322-.229h-1.696l-.013-.16c.002 0 1.076-.16 1.995-.305l.011-.003.017.003c.439.084.959.237 1.13.265.004 0 .36.103.79.366 1.137.741 1.697 1.643 2.04 2.399.247.547.326 1.096.326 1.566 0 .528-.096.959-.159 1.19l1.062-.51c.04-.02 1.42-.72 2.806-2.132"/>
        <path fill="#E21836" d="M20.463 32.748l.549 1.696h1.783l-1.44 1.048.55 1.695-1.442-1.045-1.442 1.045.55-1.695-1.442-1.048h1.781zM53.364 32.748l.551 1.696h1.782l-1.443 1.048.55 1.695-1.44-1.045-1.442 1.045.55-1.695-1.442-1.048h1.784z"/>
        <path fill="#E21836" d="M24.333 35.629c-1.44.9-2.228 2.065-2.635 3.048a6.471 6.471 0 0 0-.324 1l-.016.077-.064-.044a10.035 10.035 0 0 1-1.692-1.435c-1.187-1.255-2.315-3.098-2.32-5.668.007-1.025.21-1.92.565-2.698l-.854-1.14c-.611 1.072-.989 2.348-.989 3.82v.028c0 3.056 1.412 5.268 2.8 6.676 1.387 1.416 2.768 2.113 2.81 2.134l1.112.535a4.002 4.002 0 0 1 .151-2.791 5.366 5.366 0 0 1 2.033-2.39c.282-.17.537-.278.674-.325-.316-.204-1.057-.705-1.251-.827M55.098 39.293c1.38-1.408 2.794-3.62 2.794-6.676V32.59c0-1.473-.374-2.75-.988-3.82l-.85 1.139a6.55 6.55 0 0 1 .56 2.698c-.003 2.57-1.129 4.413-2.318 5.669-.6.638-1.215 1.112-1.688 1.434l-.065.044-.02-.076a6.562 6.562 0 0 0-.319-1c-.41-.984-1.198-2.15-2.64-3.049-.191.122-.934.623-1.249.827.14.05.393.154.675.328 1.132.737 1.686 1.634 2.03 2.385a3.71 3.71 0 0 1 .323 1.559 4.61 4.61 0 0 1-.171 1.236l1.112-.537c.042-.021 1.427-.718 2.814-2.134M44.467 27.06a9.448 9.448 0 0 1 1.078-.499c.932-.36 2.27-.73 3.864-.73h.017c1.334 0 3.003.477 4.373 1.433h1.972a7.913 7.913 0 0 0-.842-.76c-1.692-1.318-3.763-1.947-5.518-1.95a11.92 11.92 0 0 0-5.091 1.144l-.061.03-.014-.07c-.464-2.557-1.583-4.857-2.877-7.206-1.434-2.594-3.09-5.26-4.42-8.417-1.326 3.156-2.986 5.823-4.417 8.417-1.293 2.35-2.414 4.65-2.879 7.206l-.011.07-.061-.03a11.916 11.916 0 0 0-5.09-1.145c-1.758.004-3.829.633-5.519 1.951-.295.23-.577.486-.842.76h1.97c1.37-.956 3.039-1.432 4.37-1.432h.022c1.595 0 2.928.37 3.862.73.469.18.833.365 1.076.499.122.064.216.121.273.156.032.019.053.034.065.042a.162.162 0 0 1 .013.007l.006.002v.002l.88.598.113-1.06c.291-2.687 1.426-5.12 2.87-7.736 1.014-1.835 2.169-3.75 3.253-5.895l.046-.094.048.094c1.082 2.145 2.242 4.06 3.252 5.895 1.442 2.615 2.58 5.049 2.87 7.735l.116 1.061.874-.594.006-.004.008-.004s.001-.003.007-.007c.015-.008.036-.023.065-.042.06-.035.152-.092.273-.156M24.01 45.325c0 .143.004.267.004.36 0 1.93.755 3.672 1.92 4.941 1.163 1.265 2.752 2.077 4.442 2.079h.004c.768 0 1.551-.174 2.3-.54l.05-.022.02.05c.582 1.234 1.963 3.783 4.198 5.675 2.243-1.896 3.616-4.441 4.201-5.676l.021-.05.05.023c.749.366 1.532.54 2.298.54h.005c1.692-.002 3.278-.814 4.442-2.079a7.333 7.333 0 0 0 1.92-4.94l.002-.36c0-.698-.07-1.956-.893-3.47v.028c-.006 1.833-1.405 3.064-1.83 3.316a2.486 2.486 0 0 1-1.274.348h-.008c-.608 0-1.2-.217-1.644-.446a5.39 5.39 0 0 1-.68-.43l-1.085.773c.17.137.648.509 1.117.76.57.303 1.366.624 2.3.624h.005c.61 0 1.275-.151 1.915-.522.239-.143.475-.313.702-.517l.093-.08-.004.124a6.044 6.044 0 0 1-1.58 3.927c-.958 1.042-2.225 1.663-3.492 1.663v.002h-.006c-.764-.004-1.535-.22-2.294-.732l-.672-.523-.292.859v.002c-.013.024-.027.065-.05.116a17.958 17.958 0 0 1-1.006 1.966c-.54.915-1.282 1.991-2.212 2.957l-.009.01-.04.04-.036-.04-.012-.01c-.93-.966-1.673-2.042-2.21-2.957a18.199 18.199 0 0 1-.808-1.522c-.09-.19-.154-.343-.198-.444-.02-.051-.04-.092-.05-.116v-.002h-.001l-.29-.86-.678.526c-.755.51-1.526.726-2.289.73-.005 0-.01-.002-.01 0-1.266-.002-2.533-.623-3.49-1.665a6.084 6.084 0 0 1-1.581-3.927l-.002-.124.091.08c.231.204.463.374.703.517.64.37 1.305.522 1.915.522h.008c.932 0 1.73-.32 2.302-.623.463-.252.94-.624 1.116-.76l-1.09-.774a4.86 4.86 0 0 1-.676.426c-.446.233-1.04.45-1.644.45h-.008c-.415 0-.836-.095-1.277-.348-.423-.252-1.825-1.483-1.827-3.316v-.028c-.823 1.514-.894 2.772-.895 3.47"/>
        <path fill="#E21836" d="M36.066 26.68h1.789l-.907-12.673zM32.735 37.96c.1.837.286 1.754.608 2.64v-2.64h-.608zM34.01 37.96v4.073c.19.318.402.623.642.91V37.96h-.642zM35.323 37.96v5.675c.2.177.413.343.64.498v-6.174h-.64zM36.635 37.96v6.567c.098.051.204.099.31.147a6.3 6.3 0 0 0 .329-.16v-6.555h-.639zM37.946 37.96v6.157c.227-.156.44-.322.639-.499V37.96h-.639zM39.257 37.96v4.959c.238-.29.452-.598.638-.917V37.96h-.638zM41.157 37.96h-.593v2.594c.317-.874.498-1.774.593-2.595"/>
        <path fill="#005E9D" d="M33.469 46.61c.177.05.587.104.587.104l1.034-2.461c-.773-.633-1.354-1.399-1.795-2.21-.223.504-1.535 3.486-1.549 3.568-.019.09.033.229.158.301.126.073.393.233.393.233s-.34.642-.661.783c-.318.143-.907.371-1.439.337-.533-.036-.874-.046-.96.39-.143.732.57 1.102.57 1.102s-.286-.798.23-.798h3.255c.196 0 .41.247.213.695.427-.181.589-.534.5-.98-.09-.445-.588-.375-.818-.39-.235-.02-.64-.145-.64-.145l.442-.71s.303.125.48.18"/>
        <path fill="#005596" d="M39.312 31.329s.162.838.5.838c.339 0 1.913-1.433 2.49-2.012.577-.576 2.4-2.24 4.571-2.24 2.168 0 9.925.018 9.925.018s-.267.818-.926.941c-.66.126-4.643.538-4.643.538H55.8s-.463.832-1.141.958c-.674.122-3.643.427-3.643.427h3.52s-.338.87-1.192 1.029c-.853.164-3.644.394-3.644.394h3.36s-.482.818-1.226.978c-.747.16-3.699.46-3.699.46h3.146s-.442.767-1.263.908c-.818.143-3.308.48-3.308.48h2.685s-.656.873-1.582 1.034c-.924.157-2.738.425-2.738.425H47s-.839.711-1.494.907c-.66.197-2.386.5-2.386.5h1.407l-2.563 1.528v.25l2.934 2.863s-.442.783-1.227 1.438c-.78.66-1.28.907-1.28.907l-1.507-3.44c.072-.168.144-.332.207-.504.673-1.753.814-3.578.814-4.84 0-.963-.084-1.598-.086-1.607l-.027-.221-4.77-1.098-.07-.019-.073.02-4.768 1.097-.03.22c-.002.01-.088.652-.088 1.632 0 1.263.141 3.086.812 4.834.066.175.143.35.22.523l-1.493 3.403s-.497-.247-1.282-.907c-.781-.655-1.225-1.438-1.225-1.438l2.934-2.864v-.25l-2.559-1.527h1.402s-1.724-.303-2.381-.5c-.662-.196-1.494-.907-1.494-.907h1.92s-1.815-.268-2.74-.425c-.924-.161-1.583-1.034-1.583-1.034h2.687s-2.49-.337-3.31-.48c-.817-.141-1.261-.907-1.261-.907h3.147s-2.953-.301-3.698-.461c-.749-.16-1.227-.978-1.227-.978h3.36s-2.79-.23-3.644-.394c-.855-.158-1.194-1.03-1.194-1.03h3.52s-2.968-.304-3.644-.426c-.675-.126-1.14-.958-1.14-.958h4.571s-3.982-.412-4.641-.538c-.657-.123-.922-.94-.922-.94s7.752-.02 9.923-.02c2.168 0 3.991 1.665 4.57 2.241.578.579 2.154 2.012 2.49 2.012.336 0 .803-.615.803-.615.267-.524.564-1.391.564-1.391s-.402-.147-.657-.31c-.254-.157-.389-.428-.389-.428h.995c.25 0 1.015.189.947.576-.067.39-.643 2.21-.643 2.21s.605.122 1.206.122c.603 0 1.673-.122 1.673-.122l-.548-3.535c-.056-.362-.602-.482-1.071-.482-.47 0-.844.107-.938.132-.093.028-.121.124.067.228.187.111.4.044.4.044s-.011.227-.184.36c-.176.132-.591.16-.871.16-.284 0-.791-.028-.966.014-.172.04-.267.133-.305.213-.044.08.118.414.118.414s-.282.122-.469-.345c-.186-.473-.057-.892.149-1.031.467-.324 1.473-.122 1.473-.122s.228-.587.855-.842c.629-.256 1.26-.109 1.835-.04.577.065 1.126.04 1.126.04l-.484.815s.395 2.458.516 3.097"/>
        <path fill="#005E9D" d="M38.388 44.561a6.812 6.812 0 0 1-1.32.728l-.124.055-.126-.055a6.715 6.715 0 0 1-1.291-.709l-.688 1.778s.676.26 2.09.265c0 .002 0 .002.004.002H36.99v-.002c1.417-.006 2.089-.265 2.089-.265l-.692-1.797zM43.723 47.265c-.533.034-1.118-.194-1.44-.337-.32-.141-.656-.783-.656-.783s.265-.16.391-.233c.122-.072.175-.211.16-.3-.019-.085-1.393-3.213-1.566-3.606a7.4 7.4 0 0 1-1.787 2.226l1.04 2.482s.41-.053.587-.104c.177-.056.48-.182.48-.182l.446.711s-.41.126-.64.145c-.233.015-.73-.055-.82.39-.087.446.07.799.498.98-.197-.448.019-.695.213-.695h3.254c.519 0 .233.798.233.798s.71-.37.57-1.102c-.084-.436-.427-.426-.963-.39"/>
        <path fill="#005596" d="M40.541 35.5l.13.396-.335-.244-.332.244.128-.397-.334-.24h.414l.124-.39.13.39h.41l-.335.24zm.13 1.543l-.335-.244-.332.244.128-.393-.334-.244h.414l.124-.39.13.39h.41l-.335.244.13.393zm-1.135-1.43l-.334-.241-.33.242.124-.39-.331-.245h.411l.126-.392.128.392h.411l-.331.244.126.39zm-.214 1.43l-.332-.244-.333.244.126-.393-.332-.244h.41l.13-.39.127.39h.412l-.334.244.126.393zM38.07 35.09l-.333.242.13-.389-.336-.244h.412l.127-.39.126.39h.413l-.331.244.126.389-.334-.242zm-.093 1.953l-.335-.244-.332.244.128-.393-.334-.244h.412l.126-.39.129.39h.412l-.334.244.128.393zm-1.362-1.99l.13-.392-.334-.242h.411l.126-.39.13.39h.411l-.333.242.125.393-.333-.246-.333.246zm-.038 1.99l-.334-.244-.333.244.127-.393-.335-.244h.412l.129-.39.126.39h.413l-.333.244.128.393zm-1.302-2.344h.415l.124-.39.13.39h.41l-.334.244.13.389-.336-.242-.331.242.126-.389-.334-.244zm-.048 2.344l-.33-.244-.337.244.13-.393-.335-.244h.413l.13-.39.126.39h.41l-.332.244.125.393zm-1.084-2.064h.412l.125-.392.128.392h.412l-.332.244.126.39-.334-.241-.331.242.126-.39-.332-.245zm-.389.52l.127.397-.334-.244-.333.244.129-.397-.333-.24h.41l.127-.39.128.39h.413l-.334.24zm.127 1.544l-.334-.244-.333.244.129-.393-.333-.244h.41l.127-.39.128.39h.413l-.334.244.127.393zm7.325-2.235l-4.258-.981-4.258.98-.016.2c-.02.271-.042.66-.042 1.13-.001.345.01.738.044 1.155h8.544a14.443 14.443 0 0 0-.013-2.485z"/>
    </g>
</svg>
